<?xml version="1.0" encoding="utf-8"?>
<!-- Generator: Adobe Illustrator 16.0.0, SVG Export Plug-In . SVG Version: 6.00 Build 0)  -->
<!DOCTYPE svg PUBLIC "-//W3C//DTD SVG 1.1//EN" "http://www.w3.org/Graphics/SVG/1.1/DTD/svg11.dtd">
<svg version="1.1" id="Layer_1" xmlns="http://www.w3.org/2000/svg" xmlns:xlink="http://www.w3.org/1999/xlink" x="0px" y="0px"
	 viewBox="0 0 850.39 850.39" enable-background="new 0 0 850.39 850.39" xml:space="preserve">
<g>
	<path fill-rule="evenodd" clip-rule="evenodd" fill="#4158A7" d="M387.431,28.15c15.768-4.925,33.658-1.174,46.176,11.304
		l48.124,48.098l-17.463,17.402l-57.513-57.426c-5.658-5.845-11.717-11.784-19.765-14.012c-0.828-0.214-1.695-0.428-2.549-0.641
		C381.119,32.021,379.677,30.939,387.431,28.15 M442.361,28.751c15.774-4.938,33.685-1.201,46.177,11.264l20.364,20.392
		l-17.516,17.429L461.7,48.102c-5.672-5.792-11.751-11.745-19.785-13.973c-0.834-0.227-1.655-0.427-2.529-0.667
		C436.09,32.608,434.596,31.554,442.361,28.751z M350.463,412.464c-15.761,4.937-33.657,1.213-46.142-11.251l-6.906-6.913
		l-84.838-84.824c-15.802-15.789-15.781-41.759,0.013-57.573l86.96-86.974l0,0l35.032-35.006l0,0l47.871-47.884
		c1.234-1.242,1.175-3.35-0.174-4.671l-4.837-4.871c-1.361-1.334-3.45-1.401-4.671-0.147l-89.422,89.43l0,0l-57.5,57.412
		c-5.765,5.699-11.697,11.785-13.966,19.818c-0.2,0.841-0.42,1.655-0.641,2.522c-0.848,3.336-1.928,4.778-4.711-3.002
		c-4.938-15.722-1.188-33.658,11.237-46.176l48.137-48.084l-0.014,0.04l89.443-89.429c1.215-1.201,1.115-3.35-0.173-4.657
		l-4.858-4.872c-1.335-1.348-3.436-1.415-4.711-0.173L242.738,148.034h0.041h-0.041l-16.255,16.269
		c-5.792,5.659-11.757,11.757-13.966,19.792c-0.226,0.828-0.44,1.628-0.661,2.509c-0.847,3.35-1.949,4.791-4.71-2.99
		c-4.952-15.761-1.208-33.658,11.284-46.176l6.906-6.846l93.759-93.793c15.835-15.84,41.712-15.84,57.56-0.013l77.813,77.791
		l-17.483,17.469l-22.127-22.141l-10.443-10.462c-1.067-1.068-2.795-1.134-4.104-0.347l-102.48,102.481l0,0l-12.145,12.171
		l-10.45,10.422c-1.027,1.042-1.147,2.763-0.307,4.057l41.919,41.945v-0.027l70.859,70.879c1.047,0.974,2.689,1.001,3.936,0.213
		l41.913-41.892l157.118-157.145l17.489,17.43l-198.65,198.663c-1.254,1.253-1.194,3.35,0.18,4.697l4.831,4.818
		c1.321,1.388,3.43,1.455,4.685,0.2L617.83,169.347l8.809,8.754l5.151,5.179l3.549,3.523L436.65,385.439
		c-1.234,1.267-1.168,3.363,0.206,4.697l4.831,4.857c1.328,1.322,3.417,1.402,4.678,0.161l198.649-198.676l0,0l0,0l17.456,17.496
		l-189.56,189.561c-15.855,15.855-41.761,15.855-57.614,0.013L296.761,285.04h0.04l-38.942-38.929
		c-1.228-1.242-3.363-1.214-4.724,0.16l-4.818,4.844c-1.348,1.322-1.441,3.443-0.146,4.671l80.434,80.447l57.466,57.466
		c5.699,5.845,11.778,11.785,19.818,13.986c0.814,0.214,1.656,0.454,2.523,0.654c3.31,0.867,4.778,1.962-3.017,4.751
		c-15.748,4.978-33.67,1.174-46.182-11.291l-48.071-48.111l-80.434-80.434c-1.248-1.255-3.37-1.188-4.691,0.16l-4.845,4.871
		c-1.334,1.294-1.428,3.43-0.174,4.658l93.887,93.86l0,0v0.053l0,0l16.242,16.229c5.692,5.845,11.757,11.771,19.778,14.013
		c0.841,0.2,1.702,0.414,2.57,0.667C356.776,408.58,358.257,409.701,350.463,412.464z"/>
	<path fill-rule="evenodd" clip-rule="evenodd" fill="#2D308C" d="M441.921,395.248l8.849,8.354c0,0,3.537,3.042,6.96,4.711
		c3.276,1.602,8.16,0.534,10.35-0.841c3.51-2.215,4.571-3.75,4.571-3.75l189.82-189.774l-17.463-17.51L446.873,394.634l-0.508,0.494
		l-0.72,0.587l-0.882,0.254l-0.446,0.093l-0.741-0.093l-0.934-0.267L441.921,395.248z"/>
	<polyline fill-rule="evenodd" clip-rule="evenodd" fill="#2D308C" points="445.432,376.524 635.272,186.749 617.89,169.227 
		419.714,367.462 419.207,367.983 418.5,368.517 417.646,368.811 417.151,368.85 416.445,368.811 415.483,368.544 414.403,367.863 
		434.994,387.308 	"/>
	<path fill-rule="evenodd" clip-rule="evenodd" fill="#2D308C" d="M387.644,340.931l17.831,17.042c0,0,2.055-0.587,6.553-3.416
		c3.483-2.216,6.325-5.125,6.325-5.125l189.782-189.775l-17.444-17.536L392.596,340.345l-0.547,0.52l-0.681,0.547l-0.88,0.227
		L390,341.705h-0.727l-0.908-0.307L387.644,340.931z"/>
	<path fill-rule="evenodd" clip-rule="evenodd" fill="#2D308C" d="M350.35,45.446l-13.025-12.639
		c-3.636-4.457-11.59-1.24-13.245-0.199c-1.442,0.827-3.229,2.429-3.229,2.429L217.555,138.425c0,0-8.834,8.074-11.504,21.78
		c-3.59,18.35,3.51,28.533,3.51,28.533s1.448,2.282,2.402-2.242c1.769-8.395,6.253-13.839,11.464-19.15l122.22-122.272
		c0,0,1.174-0.814,2.322-0.761C349.523,44.432,350.35,45.446,350.35,45.446z"/>
	<path fill-rule="evenodd" clip-rule="evenodd" fill="#2D308C" d="M377.575,72.564l-19.999-19.778l-9.501,9.355l-131.361,131.4
		c0,0-8.781,8.035-11.451,21.714c-3.576,18.363,3.437,28.519,3.437,28.519s1.481,2.295,2.416-2.188
		c1.789-8.421,6.279-13.853,11.498-19.151L372.818,72.218c0,0,1.174-0.895,2.361-0.801C376.722,71.55,377.575,72.564,377.575,72.564
		z"/>
	<path fill-rule="evenodd" clip-rule="evenodd" fill="#2D308C" d="M404.767,99.749l-19.978-19.792l-39.429,39.13L213.965,250.502
		c0,0-9.903,8.247-12.598,21.94c-3.597,18.337,6.246,30.814,6.246,30.814s-0.027-8.461,3.463-14.066
		c2.529-4.017,8.801-9.769,8.801-9.769l180.18-180.006c0,0,1.188-0.907,2.335-0.813C403.966,98.762,404.767,99.749,404.767,99.749z"
		/>
	<g>
		<g>
			<path fill="#2D308C" d="M244.269,624.331c-13.786,5.466-26.543,8.202-38.268,8.202c-20.446,0-38.746-6.539-54.911-19.611
				c-20.603-16.715-30.902-38.509-30.902-65.367c0-26.938,10.3-48.765,30.902-65.486c16.165-13.072,34.585-19.612,55.264-19.612
				c11.25,0,23.892,2.736,37.915,8.202v50.513c-3.967-4.864-8.014-8.534-12.141-11.01c-7.54-4.545-15.634-6.82-24.282-6.82
				c-10.95,0-20.472,3.297-28.566,9.89c-10.236,8.348-15.354,19.784-15.354,34.324c0,14.461,5.118,25.864,15.354,34.205
				c8.094,6.592,17.616,9.889,28.566,9.889c8.648,0,16.742-2.274,24.282-6.819c4.047-2.389,8.094-6.06,12.141-11.009V624.331z"/>
			<path fill="#2D308C" d="M427.408,559.438c0,9.75-0.791,18.064-2.376,24.957c-2.455,10.697-8.32,20.445-17.589,29.24
				c-13.155,12.438-30.745,18.657-52.772,18.657c-22.424,0-39.934-6.333-52.531-19.012c-6.656-6.658-11.211-15.013-13.666-25.082
				c-1.745-7.126-2.616-16.715-2.616-28.761v-93.532h42.192v87.747c0,7.047,0.121,12.312,0.357,15.796
				c0.791,11.003,5.822,18.684,15.093,23.034c3.804,1.821,8.001,2.729,12.599,2.729c10.299,0,18.066-3.597,23.294-10.803
				c3.88-5.305,5.822-15.555,5.822-30.756v-87.747h42.192V559.438z"/>
			<path fill="#2D308C" d="M611.145,628.136h-52.409l-40.29-62.277v62.277h-42.198V465.906h65.606
				c19.177,0,33.357,5.745,42.553,17.229c7.44,9.276,11.17,20.167,11.17,32.684c0,14.348-4.277,25.791-12.831,34.353
				c-5.472,5.465-13,9.268-22.581,11.41L611.145,628.136z M551.836,518.142c0-5.766-2.108-10.624-6.319-14.581
				c-3.977-3.71-10.377-5.564-19.205-5.564h-7.866v40.403h7.866c8.909,0,15.314-1.855,19.205-5.565
				C549.728,528.806,551.836,523.906,551.836,518.142z"/>
			<path fill="#2D308C" d="M736.052,628.136h-92.345V465.906h92.345v35.18h-50.159v27.692h47.424v35.179h-47.424v29h50.159V628.136z
				"/>
		</g>
	</g>
	<g opacity="0.7">
		<g>
			<path fill="#2D308C" d="M132.664,822.421h-12.952l-2.396,4.711h-5.238l14.086-28.186l14.093,28.186h-5.238L132.664,822.421z
				 M122.02,817.75h8.288l-4.144-8.281L122.02,817.75z"/>
			<path fill="#2D308C" d="M164.653,827.132l-5.445-9.382h-7.96v9.382h-4.665v-28.186h14.087c2.575,0,4.777,0.921,6.619,2.764
				c1.842,1.841,2.763,4.05,2.763,6.618c0,1.948-0.554,3.724-1.668,5.325c-1.082,1.568-2.463,2.696-4.138,3.363l5.806,10.115
				H164.653z M160.669,803.657h-9.422v9.342l9.422,0.04c1.274,0,2.368-0.454,3.289-1.375c0.921-0.92,1.382-2.035,1.382-3.336
				c0-1.268-0.46-2.361-1.382-3.282C163.038,804.125,161.944,803.657,160.669,803.657z"/>
			<path fill="#2D308C" d="M190.47,798.946c3.896,0,7.214,1.388,9.949,4.15c2.789,2.757,4.184,6.072,4.184,9.942
				c0,3.003-0.88,5.726-2.642,8.168l2.642,2.596l-3.369,3.329l-2.603-2.603c-2.462,1.736-5.186,2.603-8.161,2.603
				c-3.897,0-7.213-1.381-9.949-4.138c-2.762-2.734-4.137-6.058-4.137-9.955c0-3.87,1.375-7.186,4.137-9.942
				C183.23,800.334,186.546,798.946,190.47,798.946z M190.47,803.657c-2.569,0-4.791,0.92-6.659,2.763
				c-1.815,1.842-2.723,4.051-2.723,6.619c0,2.576,0.907,4.791,2.723,6.659c1.869,1.815,4.09,2.723,6.659,2.723
				c2.576,0,4.778-0.907,6.62-2.723c1.841-1.868,2.762-4.083,2.762-6.659c0-2.568-0.921-4.777-2.762-6.619
				C195.248,804.577,193.045,803.657,190.47,803.657z"/>
			<path fill="#2D308C" d="M234.397,815.401c0,3.243-1.154,6.02-3.45,8.321c-2.329,2.275-5.104,3.409-8.327,3.409
				c-3.196,0-5.953-1.134-8.281-3.409c-2.275-2.329-3.41-5.105-3.41-8.321v-16.455h4.664v16.455c0,1.948,0.681,3.597,2.035,4.952
				c1.381,1.374,3.043,2.067,4.992,2.067s3.604-0.693,4.958-2.067c1.401-1.382,2.109-3.03,2.109-4.952v-16.455h4.711V815.401z"/>
			<path fill="#2D308C" d="M240.729,798.946h4.665v28.186h-4.665V798.946z"/>
			<path fill="#2D308C" d="M251.72,798.946h23.508v4.711h-9.382v23.475h-4.711v-23.475h-9.415V798.946z"/>
			<path fill="#2D308C" d="M300.317,798.946v4.711h-14.093v7.072h14.093v4.672h-14.093v7.02h14.093v4.711h-18.757v-28.186H300.317z"
				/>
			<path fill="#2D308C" d="M320.77,798.946c1.949,0,3.771,0.373,5.465,1.101c1.688,0.729,3.183,1.741,4.484,3.05l-3.33,3.323
				c-1.842-1.843-4.043-2.763-6.62-2.763c-1.294,0-2.515,0.247-3.65,0.733c-1.141,0.487-2.135,1.162-2.989,2.016
				c-0.848,0.848-1.528,1.842-2.028,2.977c-0.501,1.141-0.753,2.362-0.753,3.656c0,1.303,0.252,2.521,0.753,3.657
				c0.5,1.134,1.167,2.135,2.008,2.989c0.841,0.848,1.835,1.521,2.99,2.002c1.147,0.493,2.375,0.733,3.669,0.733
				c2.549,0,4.751-0.907,6.62-2.723l3.33,3.296c-1.301,1.296-2.796,2.31-4.484,3.044c-1.695,0.727-3.517,1.094-5.465,1.094
				s-3.776-0.373-5.478-1.121c-1.708-0.74-3.203-1.747-4.491-3.017c-1.281-1.28-2.302-2.762-3.043-4.469
				c-0.747-1.71-1.114-3.537-1.114-5.486c0-1.896,0.367-3.696,1.114-5.418c0.741-1.722,1.762-3.223,3.043-4.512
				c1.289-1.281,2.783-2.295,4.491-3.043C316.993,799.319,318.821,798.946,320.77,798.946z"/>
			<path fill="#2D308C" d="M337.051,798.946h23.509v4.711h-9.382v23.475h-4.711v-23.475h-9.416V798.946z"/>
			<path fill="#2D308C" d="M380.972,798.946c3.897,0,7.213,1.388,9.949,4.15c2.789,2.757,4.184,6.072,4.184,9.942
				c0,3.925-1.395,7.248-4.184,9.955c-2.736,2.757-6.052,4.138-9.949,4.138c-3.896,0-7.213-1.381-9.949-4.138
				c-2.763-2.734-4.137-6.058-4.137-9.955c0-3.87,1.375-7.186,4.137-9.942C373.732,800.334,377.048,798.946,380.972,798.946z
				 M380.972,803.657c-2.569,0-4.791,0.92-6.659,2.763c-1.815,1.842-2.723,4.051-2.723,6.619c0,2.576,0.908,4.791,2.723,6.659
				c1.868,1.815,4.09,2.723,6.659,2.723c2.576,0,4.778-0.907,6.62-2.723c1.841-1.868,2.763-4.083,2.763-6.659
				c0-2.568-0.921-4.777-2.763-6.619C385.75,804.577,383.548,803.657,380.972,803.657z"/>
			<path fill="#2D308C" d="M409.638,815.401c-2.276,0-4.21-0.801-5.806-2.402c-1.601-1.595-2.396-3.543-2.396-5.845
				c0-2.242,0.794-4.164,2.396-5.766c1.569-1.629,3.504-2.442,5.806-2.442h15.268v4.711h-15.268c-0.487,0-0.948,0.094-1.381,0.268
				c-0.434,0.173-0.814,0.427-1.141,0.753c-0.32,0.328-0.574,0.701-0.748,1.135c-0.18,0.434-0.267,0.881-0.267,1.342
				c0,0.974,0.34,1.814,1.014,2.521c0.681,0.701,1.521,1.054,2.522,1.054h7.026c2.269,0,4.204,0.796,5.806,2.391
				c1.622,1.602,2.436,3.536,2.436,5.805c0,2.255-0.814,4.19-2.436,5.813c-1.602,1.595-3.537,2.395-5.806,2.395h-15.228v-4.711
				h15.228c0.487,0,0.948-0.086,1.375-0.266c0.434-0.174,0.814-0.415,1.141-0.729c0.327-0.313,0.574-0.687,0.748-1.114
				c0.18-0.434,0.267-0.895,0.267-1.388c0-0.94-0.354-1.77-1.054-2.469c-0.681-0.708-1.501-1.055-2.476-1.055H409.638z"/>
			<path fill="#2D308C" d="M438.299,813.307l0.419-3.324h10.023l-0.42,3.324H438.299z"/>
			<path fill="#2D308C" d="M466.53,798.946h4.665v28.186h-4.665V798.946z"/>
			<path fill="#2D308C" d="M479.743,798.906l18.758,16.896v-16.896h4.71v28.186v-0.039v0.079l-18.804-16.895v16.854h-4.664V798.906z
				"/>
			<path fill="#2D308C" d="M525.846,798.946c1.947,0,3.776,0.373,5.484,1.101c1.701,0.729,3.203,1.741,4.505,3.05l-3.37,3.323
				c-1.815-1.843-4.017-2.763-6.619-2.763c-2.569,0-4.791,0.92-6.66,2.763c-1.815,1.842-2.723,4.051-2.723,6.619
				c0,2.576,0.907,4.791,2.723,6.659c1.869,1.815,4.091,2.723,6.66,2.723c1.407,0,2.716-0.28,3.916-0.827
				c1.208-0.56,2.256-1.334,3.149-2.336v-3.856h-7.065v-4.672h11.776v10.063c-0.646,0.948-1.4,1.816-2.255,2.604
				s-1.781,1.455-2.782,2.016c-1.001,0.548-2.069,0.974-3.202,1.274c-1.142,0.301-2.316,0.446-3.537,0.446
				c-3.897,0-7.214-1.381-9.949-4.138c-2.764-2.734-4.138-6.058-4.138-9.955c0-3.87,1.374-7.186,4.138-9.942
				C518.632,800.334,521.948,798.946,525.846,798.946z"/>
			<path fill="#2D308C" d="M564.928,798.946v4.711h-14.093v7.072h14.093v4.672h-14.093v7.02h14.093v4.711h-18.757v-28.186H564.928z"
				/>
			<path fill="#2D308C" d="M573.469,798.906l18.758,16.896v-16.896h4.71v28.186v-0.039v0.079l-18.804-16.895v16.854h-4.664V798.906z
				"/>
			<path fill="#2D308C" d="M605.485,798.946h4.664v28.186h-4.664V798.946z"/>
			<path fill="#2D308C" d="M637.455,798.946v4.711h-14.094v7.072h14.094v4.672h-14.094v7.02h14.094v4.711h-18.758v-28.186H637.455z"
				/>
			<path fill="#2D308C" d="M664.072,827.132l-5.445-9.382h-7.96v9.382h-4.665v-28.186h14.086c2.576,0,4.779,0.921,6.62,2.764
				c1.842,1.841,2.762,4.05,2.762,6.618c0,1.948-0.554,3.724-1.668,5.325c-1.08,1.568-2.461,2.696-4.136,3.363l5.804,10.115H664.072
				z M660.088,803.657h-9.421v9.342l9.421,0.04c1.276,0,2.37-0.454,3.291-1.375c0.92-0.92,1.381-2.035,1.381-3.336
				c0-1.268-0.461-2.361-1.381-3.282C662.458,804.125,661.364,803.657,660.088,803.657z"/>
			<path fill="#2D308C" d="M692.099,798.946c3.896,0,7.213,1.388,9.948,4.15c2.79,2.757,4.185,6.072,4.185,9.942
				c0,3.925-1.395,7.248-4.185,9.955c-2.735,2.757-6.052,4.138-9.948,4.138c-3.897,0-7.214-1.381-9.949-4.138
				c-2.763-2.734-4.137-6.058-4.137-9.955c0-3.87,1.374-7.186,4.137-9.942C684.858,800.334,688.175,798.946,692.099,798.946z
				 M692.099,803.657c-2.569,0-4.792,0.92-6.66,2.763c-1.814,1.842-2.723,4.051-2.723,6.619c0,2.576,0.908,4.791,2.723,6.659
				c1.868,1.815,4.091,2.723,6.66,2.723c2.575,0,4.777-0.907,6.619-2.723c1.842-1.868,2.763-4.083,2.763-6.659
				c0-2.568-0.921-4.777-2.763-6.619C696.876,804.577,694.674,803.657,692.099,803.657z"/>
			<path fill="#2D308C" d="M722.98,815.401c-2.276,0-4.211-0.801-5.805-2.402c-1.603-1.595-2.396-3.543-2.396-5.845
				c0-2.242,0.794-4.164,2.396-5.766c1.567-1.629,3.503-2.442,5.805-2.442h15.268v4.711H722.98c-0.488,0-0.948,0.094-1.382,0.268
				c-0.435,0.173-0.813,0.427-1.142,0.753c-0.319,0.328-0.574,0.701-0.747,1.135c-0.18,0.434-0.266,0.881-0.266,1.342
				c0,0.974,0.339,1.814,1.013,2.521c0.682,0.701,1.522,1.054,2.523,1.054h7.025c2.27,0,4.204,0.796,5.806,2.391
				c1.622,1.602,2.437,3.536,2.437,5.805c0,2.255-0.814,4.19-2.437,5.813c-1.602,1.595-3.536,2.395-5.806,2.395h-15.227v-4.711
				h15.227c0.488,0,0.947-0.086,1.376-0.266c0.434-0.174,0.813-0.415,1.141-0.729s0.573-0.687,0.747-1.114
				c0.181-0.434,0.267-0.895,0.267-1.388c0-0.94-0.354-1.77-1.054-2.469c-0.682-0.708-1.502-1.055-2.477-1.055H722.98z"/>
		</g>
	</g>
	<g>
		<path fill="#001689" d="M140.344,756.06c-0.014,6.22-5.018,11.198-11.171,11.198c-6.191,0-11.223-4.992-11.223-11.185
			c0-6.152,5.018-11.17,11.223-11.184C135.326,744.917,140.344,749.908,140.344,756.06z"/>
		<path fill="#001689" d="M198.598,756.114c0,6.165-4.978,11.116-11.144,11.156c-6.179,0-11.237-5.018-11.218-11.184
			c0.02-6.166,4.998-11.197,11.177-11.17C193.599,744.917,198.631,749.935,198.598,756.114z"/>
		<path fill="#001689" d="M262.456,756.087c0.054,6.179-4.951,11.171-11.13,11.171c-6.219,0.013-11.21-5.005-11.171-11.171
			c-0.04-6.179,4.952-11.17,11.144-11.197C257.498,744.89,262.443,749.908,262.456,756.087z"/>
		<path fill="#001689" d="M320.763,756.087c0,6.166-5.005,11.184-11.251,11.184c-6.152,0-11.11-4.991-11.116-11.131
			c0.014-6.219,5.031-11.236,11.197-11.223C315.758,744.89,320.763,749.882,320.763,756.087z"/>
		<path fill="#001689" d="M378.189,756.087c0,6.192-4.991,11.171-11.17,11.171c-6.206,0-11.177-4.992-11.157-11.144
			c-0.02-6.193,4.965-11.225,11.13-11.225C373.198,744.917,378.176,749.882,378.189,756.087z"/>
		<path fill="#001689" d="M436.47,756.114c0.04,6.151-5.046,11.156-11.184,11.156c-6.159-0.04-11.157-5.005-11.211-11.184
			c0.014-6.166,5.072-11.144,11.197-11.197C431.438,744.943,436.443,749.921,436.47,756.114z"/>
		<path fill="#001689" d="M496.985,756.073c0.039,6.192-4.992,11.185-11.149,11.21c-6.146-0.025-11.185-5.03-11.185-11.196
			c-0.026-6.179,4.998-11.17,11.185-11.17C492.033,744.943,497.024,749.921,496.985,756.073z"/>
		<path fill="#001689" d="M555.285,756.087c-0.026,6.179-5.059,11.184-11.229,11.184c-6.166-0.013-11.157-5.018-11.149-11.184
			c0-6.166,5.004-11.184,11.169-11.197C550.241,744.903,555.259,749.908,555.285,756.087z"/>
		<path fill="#001689" d="M612.698,756.087c-0.026,6.192-4.998,11.21-11.163,11.184c-6.226,0-11.177-4.991-11.177-11.197
			c0-6.152,4.991-11.17,11.144-11.156C607.7,744.903,612.718,749.908,612.698,756.087z"/>
		<path fill="#001689" d="M670.985,756.087c0,6.179-5.019,11.171-11.229,11.171c-6.153,0-11.118-4.979-11.084-11.144
			c-0.034-6.193,4.997-11.197,11.116-11.211C665.967,744.89,670.958,749.882,670.985,756.087z"/>
		<path fill="#001689" d="M734.824,756.073c0.081,6.18-4.95,11.157-11.097,11.185c-6.246,0-11.23-4.979-11.243-11.144
			c0-6.232,5.057-11.197,11.223-11.171C729.874,744.917,734.845,749.908,734.824,756.073z"/>
	</g>
	<g>
		<g>
			<path fill="#2D308C" d="M164.605,662.721h12.479l-24.192,30.902v28.012h-9.762V694.13l-24.619-31.409h12.564l16.722,21.48
				L164.605,662.721z"/>
			<path fill="#2D308C" d="M252.274,662.721c4.077,0,7.88,0.768,11.417,2.296c3.537,1.528,6.666,3.649,9.382,6.365l-6.959,6.96
				c-3.851-3.851-8.461-5.771-13.839-5.771c-2.716,0-5.262,0.507-7.637,1.528c-2.379,1.021-4.458,2.422-6.243,4.203
				c-1.781,1.782-3.196,3.864-4.244,6.239c-1.047,2.376-1.568,4.925-1.568,7.641s0.521,5.257,1.568,7.641
				c1.047,2.375,2.449,4.45,4.204,6.238c1.751,1.782,3.834,3.183,6.238,4.198c2.406,1.021,4.965,1.527,7.682,1.527
				c5.321,0,9.932-1.895,13.839-5.685l6.959,6.873c-2.716,2.722-5.845,4.844-9.382,6.371c-3.536,1.528-7.34,2.289-11.417,2.289
				c-4.074,0-7.894-0.773-11.458-2.334c-3.567-1.557-6.693-3.664-9.382-6.326c-2.689-2.656-4.811-5.773-6.366-9.336
				c-1.558-3.563-2.336-7.387-2.336-11.457c0-3.964,0.778-7.74,2.336-11.337c1.555-3.591,3.677-6.733,6.366-9.422
				c2.689-2.683,5.815-4.805,9.382-6.366C244.38,663.502,248.2,662.721,252.274,662.721z"/>
			<path fill="#2D308C" d="M291.482,662.721h9.763v58.914h-9.763V662.721z"/>
			<path fill="#2D308C" d="M362.695,711.786h-27.078l-5.012,9.849h-10.95l29.457-58.914l29.458,58.914h-10.954L362.695,711.786z
				 M340.455,702.023h17.315l-8.658-17.314L340.455,702.023z"/>
			<path fill="#2D308C" d="M407.212,708.97c1.528,1.508,2.292,3.344,2.292,5.5c0,2.228-0.764,4.097-2.292,5.604
				c-1.528,1.508-3.366,2.262-5.522,2.262c-2.122,0-3.954-0.754-5.498-2.262c-1.545-1.508-2.316-3.377-2.316-5.604
				c0-2.156,0.771-3.992,2.316-5.5c1.544-1.507,3.376-2.262,5.498-2.262C403.846,706.708,405.685,707.463,407.212,708.97z"/>
			<path fill="#2D308C" d="M452.051,662.721h9.769v49.065h29.454v9.849h-39.223V662.721z"/>
			<path fill="#2D308C" d="M509.684,662.721h49.152v9.85h-19.612v49.064h-9.849V672.57h-19.691V662.721z"/>
			<path fill="#2D308C" d="M577.246,662.721h19.611c4.017,0,7.807,0.781,11.377,2.336c3.563,1.562,6.687,3.684,9.376,6.366
				c2.688,2.688,4.81,5.818,6.372,9.382c1.548,3.563,2.328,7.359,2.328,11.377c0,4.017-0.78,7.808-2.328,11.37
				c-1.563,3.57-3.671,6.692-6.326,9.383c-2.662,2.688-5.791,4.81-9.382,6.366c-3.597,1.561-7.4,2.334-11.417,2.334h-19.611V662.721
				z M596.857,711.786c2.716,0,5.265-0.507,7.641-1.527c2.375-1.016,4.457-2.43,6.231-4.245c1.788-1.808,3.19-3.903,4.204-6.278
				c1.021-2.376,1.534-4.898,1.534-7.554c0-2.662-0.513-5.179-1.534-7.561c-1.014-2.376-2.428-4.464-4.244-6.279
				c-1.808-1.809-3.903-3.223-6.278-4.243c-2.376-1.021-4.893-1.528-7.554-1.528h-9.85v39.216H596.857z"/>
			<path fill="#2D308C" d="M687.762,711.786h-27.079l-5.011,9.849h-10.951l29.455-58.914l29.46,58.914h-10.95L687.762,711.786z
				 M665.521,702.023h17.315l-8.66-17.314L665.521,702.023z"/>
			<path fill="#2D308C" d="M732.281,708.97c1.521,1.508,2.289,3.344,2.289,5.5c0,2.228-0.768,4.097-2.289,5.604
				c-1.534,1.508-3.369,2.262-5.524,2.262c-2.122,0-3.95-0.754-5.498-2.262c-1.549-1.508-2.315-3.377-2.315-5.604
				c0-2.156,0.767-3.992,2.315-5.5c1.548-1.507,3.376-2.262,5.498-2.262C728.912,706.708,730.747,707.463,732.281,708.97z"/>
		</g>
	</g>
</g>
</svg>
